<svg xmlns="http://www.w3.org/2000/svg" width="1400" height="880" viewBox="0 0 1400 880" fill="none">
  <defs>
    <linearGradient id="bg" x1="0" y1="0" x2="1400" y2="880" gradientUnits="userSpaceOnUse">
      <stop stop-color="#F8FBFF"/>
      <stop offset="1" stop-color="#EAF3FF"/>
    </linearGradient>
    <linearGradient id="panel" x1="904" y1="126" x2="904" y2="754" gradientUnits="userSpaceOnUse">
      <stop stop-color="#0F3D7D"/>
      <stop offset="1" stop-color="#0A2F63"/>
    </linearGradient>
  </defs>

  <rect width="1400" height="880" rx="28" fill="url(#bg)"/>
  <rect x="48" y="48" width="1304" height="784" rx="22" fill="white" stroke="#C9DDF8"/>

  <rect x="88" y="96" width="720" height="72" rx="14" fill="#F2F7FF" stroke="#CFE2FA"/>
  <rect x="110" y="118" width="188" height="28" rx="8" fill="#0E3A76"/>
  <rect x="318" y="118" width="112" height="28" rx="8" fill="#D6E8FF"/>
  <rect x="444" y="118" width="128" height="28" rx="8" fill="#D6E8FF"/>
  <rect x="586" y="118" width="96" height="28" rx="8" fill="#D6E8FF"/>

  <rect x="88" y="196" width="500" height="274" rx="16" fill="#FFFFFF" stroke="#D1E3FA"/>
  <rect x="112" y="224" width="240" height="22" rx="6" fill="#0F3D7D"/>
  <rect x="112" y="262" width="440" height="14" rx="5" fill="#E3EEFC"/>
  <rect x="112" y="286" width="382" height="14" rx="5" fill="#E3EEFC"/>
  <rect x="112" y="330" width="140" height="98" rx="10" fill="#F2F7FF" stroke="#D9E8FC"/>
  <rect x="266" y="330" width="140" height="98" rx="10" fill="#F2F7FF" stroke="#D9E8FC"/>
  <rect x="420" y="330" width="140" height="98" rx="10" fill="#F2F7FF" stroke="#D9E8FC"/>

  <rect x="612" y="196" width="196" height="274" rx="16" fill="#F8FBFF" stroke="#D1E3FA"/>
  <rect x="636" y="224" width="132" height="20" rx="6" fill="#0F3D7D"/>
  <rect x="636" y="262" width="148" height="12" rx="5" fill="#E4EEFC"/>
  <rect x="636" y="286" width="120" height="12" rx="5" fill="#E4EEFC"/>
  <rect x="636" y="320" width="148" height="46" rx="10" fill="#FFFFFF" stroke="#D9E8FC"/>
  <rect x="636" y="378" width="148" height="46" rx="10" fill="#FFFFFF" stroke="#D9E8FC"/>

  <rect x="832" y="96" width="472" height="650" rx="18" fill="url(#panel)"/>
  <rect x="860" y="128" width="416" height="56" rx="12" fill="#174E99"/>
  <rect x="882" y="148" width="160" height="16" rx="5" fill="#D9EBFF"/>

  <rect x="860" y="210" width="200" height="132" rx="12" fill="#0D346A" stroke="#3168AE"/>
  <rect x="876" y="228" width="118" height="12" rx="4" fill="#AFCDF4"/>
  <rect x="876" y="252" width="160" height="22" rx="7" fill="#E5F1FF"/>
  <rect x="876" y="282" width="172" height="42" rx="8" fill="#174E99"/>

  <rect x="1076" y="210" width="200" height="132" rx="12" fill="#0D346A" stroke="#3168AE"/>
  <rect x="1092" y="228" width="132" height="12" rx="4" fill="#AFCDF4"/>
  <rect x="1092" y="252" width="160" height="22" rx="7" fill="#E5F1FF"/>
  <rect x="1092" y="282" width="160" height="42" rx="8" fill="#174E99"/>

  <rect x="860" y="368" width="416" height="160" rx="12" fill="#0D346A" stroke="#3168AE"/>
  <rect x="882" y="390" width="140" height="12" rx="4" fill="#AFCDF4"/>
  <rect x="882" y="416" width="376" height="12" rx="4" fill="#346EB7"/>
  <rect x="882" y="438" width="344" height="12" rx="4" fill="#346EB7"/>
  <rect x="882" y="468" width="96" height="34" rx="8" fill="#E5F1FF"/>

  <rect x="860" y="552" width="416" height="166" rx="12" fill="#0D346A" stroke="#3168AE"/>
  <rect x="882" y="576" width="124" height="12" rx="4" fill="#AFCDF4"/>
  <rect x="882" y="602" width="376" height="96" rx="8" fill="#174E99"/>

  <text x="86" y="802" fill="#2A4F7F" font-family="Arial, sans-serif" font-size="22" font-weight="700">
    Replace this placeholder with your real app screenshot
  </text>
</svg>
